<svg xmlns="http://www.w3.org/2000/svg" viewBox="0 0 100 100">
  <defs>
    <linearGradient id="grad" x1="0%" y1="0%" x2="100%" y2="100%">
      <stop offset="0%" style="stop-color:#2563eb;stop-opacity:1" />
      <stop offset="100%" style="stop-color:#1d4ed8;stop-opacity:1" />
    </linearGradient>
  </defs>

  <!-- Cloud shape -->
  <path d="M 70 45 C 70 38 65 32 58 32 C 56 32 54 33 52 34 C 50 28 44 24 38 24 C 30 24 24 30 24 38 C 24 39 24 40 24 41 C 20 43 18 47 18 52 C 18 59 23 65 30 65 L 68 65 C 75 65 82 59 82 52 C 82 48 79 44 75 42 C 74 43 72 44 70 45 Z"
        fill="url(#grad)"
        stroke="#1e40af"
        stroke-width="2"/>

  <!-- Infrastructure layers -->
  <rect x="35" y="52" width="30" height="3" fill="#fff" opacity="0.9" rx="1"/>
  <rect x="35" y="57" width="30" height="3" fill="#fff" opacity="0.7" rx="1"/>
  <rect x="35" y="62" width="30" height="3" fill="#fff" opacity="0.5" rx="1"/>

  <!-- Terraform T symbol -->
  <text x="50" y="48" font-family="Arial, sans-serif" font-size="20" font-weight="bold" fill="#fff" text-anchor="middle">T</text>
</svg>
